<svg width="922" height="255" viewBox="0 0 922 255" fill="none" xmlns="http://www.w3.org/2000/svg">
<path d="M117.123 131.87C115.867 131.87 114.755 131.435 113.788 130.565C112.918 129.598 112.483 128.487 112.483 127.23V39.505C112.483 37.6683 112.725 36.315 113.208 35.445C113.788 34.575 114.852 33.995 116.398 33.705C117.945 33.415 120.458 33.27 123.938 33.27H128.143C144.48 33.27 157.047 35.88 165.843 41.1C174.64 46.32 179.038 53.715 179.038 63.285C179.038 76.045 170.29 85.5183 152.793 91.705C157.337 94.605 162.315 98.9067 167.728 104.61C173.238 110.217 178.023 117.08 182.083 125.2C182.47 125.683 182.663 126.36 182.663 127.23C182.663 128.487 182.228 129.598 181.358 130.565C180.488 131.435 179.377 131.87 178.023 131.87C176.38 131.87 175.027 131 173.963 129.26C160.43 106.93 147.428 95.765 134.958 95.765C131.768 95.765 127.322 96.2 121.618 97.07V127.23C121.618 128.487 121.183 129.598 120.313 130.565C119.443 131.435 118.38 131.87 117.123 131.87ZM121.618 88.08C129.158 87.8867 136.602 86.92 143.948 85.18C151.392 83.3433 157.578 80.5883 162.508 76.915C167.438 73.2417 169.903 68.6983 169.903 63.285C169.903 56.4217 166.23 51.2017 158.883 47.625C151.537 44.0483 141.145 42.26 127.708 42.26C125.002 42.26 122.972 42.3083 121.618 42.405V88.08ZM212.925 131C211.572 131 210.412 130.565 209.445 129.695C208.575 128.825 208.14 127.762 208.14 126.505C208.14 125.248 208.575 124.233 209.445 123.46C210.412 122.59 211.572 122.155 212.925 122.155H226.7V42.695H212.925C211.572 42.695 210.412 42.26 209.445 41.39C208.575 40.52 208.14 39.4567 208.14 38.2C208.14 36.9433 208.575 35.9283 209.445 35.155C210.412 34.285 211.572 33.85 212.925 33.85H249.61C250.867 33.85 251.93 34.285 252.8 35.155C253.67 35.9283 254.105 36.9433 254.105 38.2C254.105 39.4567 253.67 40.52 252.8 41.39C251.93 42.26 250.867 42.695 249.61 42.695H235.98V122.155H249.61C250.964 122.155 252.027 122.59 252.8 123.46C253.67 124.233 254.105 125.248 254.105 126.505C254.105 127.762 253.67 128.825 252.8 129.695C251.93 130.565 250.867 131 249.61 131H212.925ZM320.125 131.87C312.488 131.87 305.48 130.082 299.1 126.505C292.72 122.928 287.645 117.902 283.875 111.425C280.105 104.852 278.22 97.3117 278.22 88.805C278.22 79.3317 280.346 70.2933 284.6 61.69C288.95 52.99 294.556 46.03 301.42 40.81C308.38 35.59 315.533 32.98 322.88 32.98C327.036 32.98 330.613 33.5117 333.61 34.575C336.606 35.5417 339.458 36.895 342.165 38.635C342.455 38.055 342.938 37.5717 343.615 37.185C344.291 36.7983 345.065 36.605 345.935 36.605C347.191 36.605 348.255 37.04 349.125 37.91C349.995 38.78 350.43 39.8433 350.43 41.1V50.38C350.43 51.6367 349.946 52.7483 348.98 53.715C348.11 54.585 347.046 55.02 345.79 55.02C344.533 55.02 343.421 54.585 342.455 53.715C341.585 52.845 341.15 51.7817 341.15 50.525V49.365C339.023 47.335 336.558 45.6433 333.755 44.29C330.951 42.84 327.326 42.115 322.88 42.115C317.176 42.115 311.618 44.29 306.205 48.64C300.791 52.99 296.345 58.79 292.865 66.04C289.481 73.1933 287.79 80.7817 287.79 88.805C287.79 95.6683 289.288 101.662 292.285 106.785C295.281 111.908 299.245 115.872 304.175 118.675C309.105 121.382 314.421 122.735 320.125 122.735C331.241 122.735 340.28 118.192 347.24 109.105C347.82 108.428 348.351 107.993 348.835 107.8C349.415 107.51 350.091 107.365 350.865 107.365C352.121 107.365 353.185 107.8 354.055 108.67C355.021 109.443 355.505 110.555 355.505 112.005C355.505 113.165 355.215 114.083 354.635 114.76C350.575 120.27 345.548 124.523 339.555 127.52C333.561 130.42 327.085 131.87 320.125 131.87ZM451.677 132.015C450.71 132.015 449.792 131.725 448.922 131.145C448.149 130.565 447.617 129.792 447.327 128.825L435.437 94.315L399.332 102.29L388.747 128.97C388.457 129.84 387.925 130.517 387.152 131C386.379 131.58 385.509 131.87 384.542 131.87C383.285 131.87 382.222 131.435 381.352 130.565C380.579 129.695 380.192 128.583 380.192 127.23C380.192 126.65 380.385 125.828 380.772 124.765L388.747 104.32C387.877 104.61 387.007 104.755 386.137 104.755C384.977 104.658 384.01 104.223 383.237 103.45C382.464 102.58 382.077 101.517 382.077 100.26C382.077 99.1967 382.415 98.23 383.092 97.36C383.769 96.49 384.59 95.9583 385.557 95.765L392.807 94.17L416.007 34.865C416.394 33.995 417.022 33.3183 417.892 32.835C418.762 32.255 419.632 31.965 420.502 31.965C421.469 31.965 422.339 32.255 423.112 32.835C423.885 33.3183 424.465 34.0433 424.852 35.01L455.447 124.04C456.027 125.78 456.317 126.94 456.317 127.52C456.317 128.68 455.882 129.743 455.012 130.71C454.142 131.58 453.03 132.015 451.677 132.015ZM432.247 85.615L419.922 49.51L403.247 91.85L432.247 85.615ZM493.155 131.87C491.898 131.87 490.787 131.435 489.82 130.565C488.95 129.598 488.515 128.487 488.515 127.23V39.505C488.515 37.6683 488.757 36.315 489.24 35.445C489.82 34.575 490.883 33.995 492.43 33.705C493.977 33.415 496.49 33.27 499.97 33.27H504.175C520.512 33.27 533.078 35.88 541.875 41.1C550.672 46.32 555.07 53.715 555.07 63.285C555.07 76.045 546.322 85.5183 528.825 91.705C533.368 94.605 538.347 98.9067 543.76 104.61C549.27 110.217 554.055 117.08 558.115 125.2C558.502 125.683 558.695 126.36 558.695 127.23C558.695 128.487 558.26 129.598 557.39 130.565C556.52 131.435 555.408 131.87 554.055 131.87C552.412 131.87 551.058 131 549.995 129.26C536.462 106.93 523.46 95.765 510.99 95.765C507.8 95.765 503.353 96.2 497.65 97.07V127.23C497.65 128.487 497.215 129.598 496.345 130.565C495.475 131.435 494.412 131.87 493.155 131.87ZM497.65 88.08C505.19 87.8867 512.633 86.92 519.98 85.18C527.423 83.3433 533.61 80.5883 538.54 76.915C543.47 73.2417 545.935 68.6983 545.935 63.285C545.935 56.4217 542.262 51.2017 534.915 47.625C527.568 44.0483 517.177 42.26 503.74 42.26C501.033 42.26 499.003 42.3083 497.65 42.405V88.08ZM612.302 132.015C606.985 132.015 601.04 131.193 594.467 129.55C593.403 129.26 592.533 128.68 591.857 127.81C591.18 126.94 590.842 125.973 590.842 124.91V37.765C590.842 36.5083 591.277 35.445 592.147 34.575C593.113 33.705 594.273 33.27 595.627 33.27C605.583 33.27 615.588 34.7683 625.642 37.765C635.792 40.665 644.54 46.2233 651.887 54.44C659.33 62.56 663.052 73.8217 663.052 88.225C663.052 97.9883 660.828 106.157 656.382 112.73C651.935 119.303 645.893 124.185 638.257 127.375C630.62 130.468 621.968 132.015 612.302 132.015ZM612.302 122.735C625.158 122.735 635.26 119.835 642.607 114.035C649.953 108.138 653.627 99.535 653.627 88.225C653.627 73.0483 648.697 61.835 638.837 54.585C628.977 47.335 616.12 43.3233 600.267 42.55V121.285C605.39 122.252 609.402 122.735 612.302 122.735ZM761.207 132.015C760.24 132.015 759.322 131.725 758.452 131.145C757.678 130.565 757.147 129.792 756.857 128.825L744.967 94.315L708.862 102.29L698.277 128.97C697.987 129.84 697.455 130.517 696.682 131C695.908 131.58 695.038 131.87 694.072 131.87C692.815 131.87 691.752 131.435 690.882 130.565C690.108 129.695 689.722 128.583 689.722 127.23C689.722 126.65 689.915 125.828 690.302 124.765L698.277 104.32C697.407 104.61 696.537 104.755 695.667 104.755C694.507 104.658 693.54 104.223 692.767 103.45C691.993 102.58 691.607 101.517 691.607 100.26C691.607 99.1967 691.945 98.23 692.622 97.36C693.298 96.49 694.12 95.9583 695.087 95.765L702.337 94.17L725.537 34.865C725.923 33.995 726.552 33.3183 727.422 32.835C728.292 32.255 729.162 31.965 730.032 31.965C730.998 31.965 731.868 32.255 732.642 32.835C733.415 33.3183 733.995 34.0433 734.382 35.01L764.977 124.04C765.557 125.78 765.847 126.94 765.847 127.52C765.847 128.68 765.412 129.743 764.542 130.71C763.672 131.58 762.56 132.015 761.207 132.015ZM741.777 85.615L729.452 49.51L712.777 91.85L741.777 85.615ZM804.57 109.395C803.216 109.395 802.056 108.96 801.09 108.09C800.22 107.123 799.785 106.012 799.785 104.755V36.605C799.785 35.3483 800.268 34.2367 801.235 33.27C802.201 32.3033 803.313 31.82 804.57 31.82C805.826 31.82 806.89 32.3033 807.76 33.27C808.726 34.2367 809.21 35.3483 809.21 36.605V104.755C809.21 106.012 808.775 107.123 807.905 108.09C807.035 108.96 805.923 109.395 804.57 109.395ZM803.265 131.87C801.718 131.87 800.461 131.338 799.495 130.275C798.528 129.115 798.045 127.713 798.045 126.07C798.045 124.233 798.673 122.59 799.93 121.14C801.283 119.69 802.781 118.965 804.425 118.965C805.875 118.965 807.083 119.545 808.05 120.705C809.016 121.768 809.5 123.073 809.5 124.62C809.5 126.65 808.823 128.39 807.47 129.84C806.213 131.193 804.811 131.87 803.265 131.87Z" fill="white"/>
<path d="M113.796 210.312C113.346 210.312 112.947 210.156 112.6 209.844C112.288 209.497 112.132 209.099 112.132 208.648V177.188C112.132 176.529 112.219 176.044 112.392 175.732C112.6 175.42 112.982 175.212 113.536 175.108C114.091 175.004 114.992 174.952 116.24 174.952H117.748C123.607 174.952 128.114 175.888 131.268 177.76C134.423 179.632 136 182.284 136 185.716C136 190.292 132.863 193.689 126.588 195.908C128.218 196.948 130.003 198.491 131.944 200.536C133.92 202.547 135.636 205.008 137.092 207.92C137.231 208.093 137.3 208.336 137.3 208.648C137.3 209.099 137.144 209.497 136.832 209.844C136.52 210.156 136.122 210.312 135.636 210.312C135.047 210.312 134.562 210 134.18 209.376C129.327 201.368 124.664 197.364 120.192 197.364C119.048 197.364 117.454 197.52 115.408 197.832V208.648C115.408 209.099 115.252 209.497 114.94 209.844C114.628 210.156 114.247 210.312 113.796 210.312ZM115.408 194.608C118.112 194.539 120.782 194.192 123.416 193.568C126.086 192.909 128.304 191.921 130.072 190.604C131.84 189.287 132.724 187.657 132.724 185.716C132.724 183.255 131.407 181.383 128.772 180.1C126.138 178.817 122.411 178.176 117.592 178.176C116.622 178.176 115.894 178.193 115.408 178.228V194.608ZM144.877 180.256C144.426 180.256 144.045 180.1 143.733 179.788C143.421 179.476 143.265 179.095 143.265 178.644L143.317 176.512C143.317 176.096 143.49 175.732 143.837 175.42C144.184 175.108 144.565 174.952 144.981 174.952C145.397 174.952 145.761 175.125 146.073 175.472C146.385 175.784 146.541 176.148 146.541 176.564L146.489 178.696C146.489 179.147 146.316 179.528 145.969 179.84C145.657 180.117 145.293 180.256 144.877 180.256ZM144.565 210.312C144.114 210.312 143.716 210.156 143.369 209.844C143.022 209.497 142.849 209.099 142.849 208.648L143.161 186.08C143.161 185.629 143.334 185.231 143.681 184.884C144.028 184.537 144.426 184.364 144.877 184.364C145.328 184.364 145.709 184.537 146.021 184.884C146.368 185.196 146.541 185.595 146.541 186.08L146.229 208.648C146.229 209.099 146.056 209.497 145.709 209.844C145.397 210.156 145.016 210.312 144.565 210.312ZM164.302 210.312C162.292 210.312 160.402 209.827 158.634 208.856C156.901 207.851 155.514 206.481 154.474 204.748C153.469 203.015 152.966 201.108 152.966 199.028C152.966 196.671 153.504 194.365 154.578 192.112C155.688 189.824 157.144 187.969 158.946 186.548C160.749 185.092 162.621 184.364 164.562 184.364C166.365 184.364 167.838 184.659 168.982 185.248C170.161 185.837 171.288 186.756 172.362 188.004C172.64 188.281 172.778 188.645 172.778 189.096C172.778 189.547 172.622 189.928 172.31 190.24C172.033 190.552 171.669 190.708 171.218 190.708C170.733 190.708 170.334 190.517 170.022 190.136C169.26 189.235 168.48 188.559 167.682 188.108C166.885 187.623 165.88 187.38 164.666 187.38C163.28 187.38 161.928 187.935 160.61 189.044C159.293 190.153 158.218 191.609 157.386 193.412C156.554 195.18 156.138 197.017 156.138 198.924C156.138 200.657 156.537 202.165 157.334 203.448C158.166 204.696 159.206 205.649 160.454 206.308C161.737 206.967 163.02 207.296 164.302 207.296C167.284 207.296 169.606 206.1 171.27 203.708C171.721 203.084 172.206 202.772 172.726 202.772C173.177 202.772 173.558 202.928 173.87 203.24C174.182 203.552 174.338 203.916 174.338 204.332C174.338 204.679 174.165 205.077 173.818 205.528C172.917 206.845 171.617 207.972 169.918 208.908C168.22 209.844 166.348 210.312 164.302 210.312ZM196.824 210.728C196.304 210.728 195.905 210.555 195.628 210.208C195.351 209.896 195.212 209.497 195.212 209.012V207.556C194.276 208.388 193.149 209.064 191.832 209.584C190.515 210.069 189.197 210.312 187.88 210.312C186.008 210.312 184.327 209.844 182.836 208.908C181.345 207.972 180.167 206.655 179.3 204.956C178.468 203.223 178.052 201.264 178.052 199.08C178.052 196.723 178.537 194.417 179.508 192.164C180.513 189.876 181.952 188.004 183.824 186.548C185.731 185.092 187.967 184.364 190.532 184.364C192.127 184.364 193.531 184.572 194.744 184.988C195.957 185.404 197.188 185.907 198.436 186.496V209.012C198.436 209.497 198.28 209.896 197.968 210.208C197.656 210.555 197.275 210.728 196.824 210.728ZM187.88 207.244C189.232 207.244 190.584 206.932 191.936 206.308C193.288 205.649 194.328 204.956 195.056 204.228L195.264 188.472C194.709 188.229 193.981 188.004 193.08 187.796C192.213 187.553 191.399 187.432 190.636 187.432C188.937 187.432 187.377 187.935 185.956 188.94C184.535 189.945 183.408 191.332 182.576 193.1C181.779 194.833 181.38 196.792 181.38 198.976C181.38 201.507 181.987 203.517 183.2 205.008C184.413 206.499 185.973 207.244 187.88 207.244ZM208.193 210.312C207.777 210.312 207.395 210.156 207.049 209.844C206.702 209.532 206.529 209.185 206.529 208.804V185.924C206.529 185.473 206.685 185.109 206.997 184.832C207.343 184.52 207.742 184.364 208.193 184.364C208.678 184.364 209.077 184.52 209.389 184.832C209.701 185.109 209.857 185.473 209.857 185.924V190.344C210.827 188.645 212.023 187.207 213.445 186.028C214.901 184.815 216.599 184.208 218.541 184.208C220.066 184.208 221.158 184.641 221.817 185.508C222.51 186.34 222.857 187.345 222.857 188.524V190.188C222.857 190.639 222.701 191.02 222.389 191.332C222.077 191.609 221.695 191.748 221.245 191.748C220.725 191.748 220.343 191.592 220.101 191.28C219.858 190.968 219.737 190.587 219.737 190.136V188.94C219.737 187.935 219.147 187.432 217.969 187.432C215.923 187.432 213.809 188.888 211.625 191.8C211.105 192.493 210.671 193.36 210.325 194.4C210.013 195.44 209.857 196.411 209.857 197.312L209.805 208.804C209.805 209.185 209.631 209.532 209.285 209.844C208.973 210.156 208.609 210.312 208.193 210.312ZM233.006 210.312C231.308 210.312 229.765 209.844 228.378 208.908C227.026 207.972 225.952 206.62 225.154 204.852C224.357 203.049 223.958 200.952 223.958 198.56C223.958 194.123 224.946 190.656 226.922 188.16C228.898 185.664 231.62 184.416 235.086 184.416C237.409 184.416 239.714 185.023 242.002 186.236L242.262 175.888C242.262 175.437 242.436 175.056 242.782 174.744C243.129 174.397 243.528 174.224 243.978 174.224C244.394 174.224 244.758 174.397 245.07 174.744C245.417 175.091 245.59 175.489 245.59 175.94L244.81 208.752C244.81 209.203 244.637 209.584 244.29 209.896C243.978 210.173 243.597 210.312 243.146 210.312C242.661 210.312 242.262 210.139 241.95 209.792C241.638 209.411 241.5 208.977 241.534 208.492L241.586 206.36C238.882 208.995 236.022 210.312 233.006 210.312ZM233.058 207.244C234.653 207.244 236.109 206.915 237.426 206.256C238.744 205.597 239.766 204.817 240.494 203.916C241.257 202.98 241.656 202.165 241.69 201.472L241.95 189.46C241.188 189.009 240.182 188.576 238.934 188.16C237.721 187.744 236.49 187.536 235.242 187.536C232.573 187.536 230.562 188.489 229.21 190.396C227.858 192.303 227.182 194.972 227.182 198.404C227.182 201.177 227.702 203.344 228.742 204.904C229.817 206.464 231.256 207.244 233.058 207.244ZM270.305 210.728C269.785 210.728 269.386 210.555 269.109 210.208C268.831 209.896 268.693 209.497 268.693 209.012V207.556C267.757 208.388 266.63 209.064 265.313 209.584C263.995 210.069 262.678 210.312 261.361 210.312C259.489 210.312 257.807 209.844 256.317 208.908C254.826 207.972 253.647 206.655 252.781 204.956C251.949 203.223 251.533 201.264 251.533 199.08C251.533 196.723 252.018 194.417 252.989 192.164C253.994 189.876 255.433 188.004 257.305 186.548C259.211 185.092 261.447 184.364 264.013 184.364C265.607 184.364 267.011 184.572 268.225 184.988C269.438 185.404 270.669 185.907 271.917 186.496V209.012C271.917 209.497 271.761 209.896 271.449 210.208C271.137 210.555 270.755 210.728 270.305 210.728ZM261.361 207.244C262.713 207.244 264.065 206.932 265.417 206.308C266.769 205.649 267.809 204.956 268.537 204.228L268.745 188.472C268.19 188.229 267.462 188.004 266.561 187.796C265.694 187.553 264.879 187.432 264.117 187.432C262.418 187.432 260.858 187.935 259.437 188.94C258.015 189.945 256.889 191.332 256.057 193.1C255.259 194.833 254.861 196.792 254.861 198.976C254.861 201.507 255.467 203.517 256.681 205.008C257.894 206.499 259.454 207.244 261.361 207.244ZM280.113 198.872C279.697 198.872 279.316 198.716 278.969 198.404C278.657 198.092 278.501 197.728 278.501 197.312C278.501 196.896 278.657 196.532 278.969 196.22C279.316 195.908 279.697 195.752 280.113 195.752H292.749C293.2 195.752 293.564 195.908 293.841 196.22C294.153 196.497 294.309 196.861 294.309 197.312C294.309 197.728 294.153 198.092 293.841 198.404C293.564 198.716 293.2 198.872 292.749 198.872H280.113ZM302.855 210.312C302.404 210.312 302.006 210.156 301.659 209.844C301.347 209.497 301.191 209.099 301.191 208.648V176.512C301.191 176.061 301.347 175.68 301.659 175.368C301.971 175.056 302.37 174.9 302.855 174.9C303.34 174.9 303.739 175.056 304.051 175.368C304.398 175.68 304.571 176.061 304.571 176.512V192.112L326.827 188.992V176.512C326.827 176.061 326.983 175.68 327.295 175.368C327.607 175.056 328.006 174.9 328.491 174.9C328.942 174.9 329.323 175.056 329.635 175.368C329.982 175.68 330.155 176.061 330.155 176.512V208.648C330.155 209.099 329.982 209.497 329.635 209.844C329.323 210.156 328.942 210.312 328.491 210.312C328.04 210.312 327.642 210.156 327.295 209.844C326.983 209.497 326.827 209.099 326.827 208.648V192.372L304.571 195.44V208.648C304.571 209.099 304.398 209.497 304.051 209.844C303.704 210.156 303.306 210.312 302.855 210.312ZM345.581 210.468C343.64 210.468 342.097 210.035 340.953 209.168C339.844 208.301 339.029 206.828 338.509 204.748C337.989 202.668 337.729 199.773 337.729 196.064C337.729 192.077 337.937 188.801 338.353 186.236C338.457 185.543 338.63 185.057 338.873 184.78C339.15 184.468 339.532 184.312 340.017 184.312C340.433 184.312 340.78 184.451 341.057 184.728C341.369 185.005 341.525 185.387 341.525 185.872C341.525 186.392 341.473 187.068 341.369 187.9C341.057 190.396 340.901 193.533 340.901 197.312C340.901 200.952 341.265 203.569 341.993 205.164C342.721 206.759 343.934 207.556 345.633 207.556C347.193 207.556 348.753 207.157 350.313 206.36C351.908 205.528 353.034 204.731 353.693 203.968C354.109 203.483 354.317 202.703 354.317 201.628L354.525 185.768C354.525 185.352 354.681 185.005 354.993 184.728C355.305 184.451 355.669 184.312 356.085 184.312C356.501 184.312 356.865 184.451 357.177 184.728C357.489 185.005 357.645 185.352 357.645 185.768V208.7C357.645 209.116 357.472 209.497 357.125 209.844C356.778 210.156 356.38 210.312 355.929 210.312C355.374 210.312 354.924 210.139 354.577 209.792C354.265 209.445 354.109 209.012 354.109 208.492V206.516C353.346 207.521 352.168 208.44 350.573 209.272C349.013 210.069 347.349 210.468 345.581 210.468ZM374.74 210.312C372.729 210.312 370.84 209.827 369.072 208.856C367.338 207.851 365.952 206.481 364.912 204.748C363.906 203.015 363.404 201.108 363.404 199.028C363.404 196.671 363.941 194.365 365.016 192.112C366.125 189.824 367.581 187.969 369.384 186.548C371.186 185.092 373.058 184.364 375 184.364C376.802 184.364 378.276 184.659 379.42 185.248C380.598 185.837 381.725 186.756 382.8 188.004C383.077 188.281 383.216 188.645 383.216 189.096C383.216 189.547 383.06 189.928 382.748 190.24C382.47 190.552 382.106 190.708 381.656 190.708C381.17 190.708 380.772 190.517 380.46 190.136C379.697 189.235 378.917 188.559 378.12 188.108C377.322 187.623 376.317 187.38 375.104 187.38C373.717 187.38 372.365 187.935 371.048 189.044C369.73 190.153 368.656 191.609 367.824 193.412C366.992 195.18 366.576 197.017 366.576 198.924C366.576 200.657 366.974 202.165 367.772 203.448C368.604 204.696 369.644 205.649 370.892 206.308C372.174 206.967 373.457 207.296 374.74 207.296C377.721 207.296 380.044 206.1 381.708 203.708C382.158 203.084 382.644 202.772 383.164 202.772C383.614 202.772 383.996 202.928 384.308 203.24C384.62 203.552 384.776 203.916 384.776 204.332C384.776 204.679 384.602 205.077 384.256 205.528C383.354 206.845 382.054 207.972 380.356 208.908C378.657 209.844 376.785 210.312 374.74 210.312ZM391.818 210.364C391.367 210.364 390.968 210.208 390.622 209.896C390.31 209.549 390.154 209.168 390.154 208.752V176.252C390.154 175.801 390.31 175.42 390.622 175.108C390.968 174.761 391.367 174.588 391.818 174.588C392.303 174.588 392.684 174.761 392.962 175.108C393.274 175.42 393.43 175.801 393.43 176.252V192.216C394.47 190.067 395.908 188.195 397.746 186.6C399.618 185.005 401.524 184.208 403.466 184.208C406.031 184.208 407.834 185.629 408.874 188.472C409.914 191.315 410.434 195.769 410.434 201.836C410.434 205.268 410.382 207.573 410.278 208.752C410.243 209.203 410.087 209.584 409.81 209.896C409.532 210.173 409.168 210.312 408.718 210.312C408.302 210.312 407.92 210.156 407.574 209.844C407.262 209.532 407.106 209.168 407.106 208.752C407.106 208.232 407.123 207.747 407.158 207.296L407.21 202.2C407.21 196.341 406.828 192.424 406.066 190.448C405.303 188.437 404.35 187.432 403.206 187.432C401.923 187.432 400.658 187.969 399.41 189.044C398.162 190.084 397.07 191.263 396.134 192.58C395.232 193.863 394.591 194.92 394.21 195.752C393.69 196.792 393.43 198.283 393.43 200.224V208.648C393.43 209.168 393.274 209.584 392.962 209.896C392.65 210.208 392.268 210.364 391.818 210.364ZM418.137 198.872C417.721 198.872 417.339 198.716 416.993 198.404C416.681 198.092 416.525 197.728 416.525 197.312C416.525 196.896 416.681 196.532 416.993 196.22C417.339 195.908 417.721 195.752 418.137 195.752H430.773C431.223 195.752 431.587 195.908 431.865 196.22C432.177 196.497 432.333 196.861 432.333 197.312C432.333 197.728 432.177 198.092 431.865 198.404C431.587 198.716 431.223 198.872 430.773 198.872H418.137ZM449.094 210.312C446.009 210.312 443.374 209.653 441.19 208.336C439.041 206.984 437.533 205.233 436.666 203.084C436.458 202.737 436.354 202.391 436.354 202.044C436.354 201.559 436.528 201.16 436.874 200.848C437.221 200.501 437.637 200.328 438.122 200.328C438.989 200.328 439.561 200.779 439.838 201.68C440.428 203.309 441.572 204.644 443.27 205.684C445.004 206.689 446.945 207.192 449.094 207.192C450.793 207.192 452.301 206.897 453.618 206.308C454.97 205.719 456.01 204.921 456.738 203.916C457.501 202.911 457.882 201.784 457.882 200.536C457.882 198.941 457.224 197.555 455.906 196.376C454.589 195.197 452.353 194.175 449.198 193.308C441.953 191.332 438.33 188.108 438.33 183.636C438.33 181.937 438.798 180.429 439.734 179.112C440.705 177.795 442.092 176.755 443.894 175.992C445.732 175.229 447.864 174.848 450.29 174.848C453.722 174.848 456.392 175.507 458.298 176.824C460.205 178.107 461.158 179.84 461.158 182.024C461.158 182.475 461.002 182.873 460.69 183.22C460.378 183.532 459.997 183.688 459.546 183.688C459.13 183.688 458.766 183.549 458.454 183.272C458.177 182.995 458.021 182.665 457.986 182.284C457.813 180.967 457.016 179.892 455.594 179.06C454.208 178.228 452.388 177.812 450.134 177.812C447.43 177.812 445.333 178.315 443.842 179.32C442.386 180.325 441.658 181.712 441.658 183.48C441.658 184.971 442.334 186.236 443.686 187.276C445.073 188.316 447.188 189.235 450.03 190.032C453.774 191.072 456.565 192.441 458.402 194.14C460.274 195.804 461.21 197.849 461.21 200.276C461.21 202.148 460.656 203.864 459.546 205.424C458.437 206.949 456.946 208.145 455.074 209.012C453.202 209.879 451.209 210.312 449.094 210.312ZM477.318 210.312C475.307 210.312 473.418 209.827 471.65 208.856C469.917 207.851 468.53 206.481 467.49 204.748C466.485 203.015 465.982 201.108 465.982 199.028C465.982 196.671 466.519 194.365 467.594 192.112C468.703 189.824 470.159 187.969 471.962 186.548C473.765 185.092 475.637 184.364 477.578 184.364C479.381 184.364 480.854 184.659 481.998 185.248C483.177 185.837 484.303 186.756 485.378 188.004C485.655 188.281 485.794 188.645 485.794 189.096C485.794 189.547 485.638 189.928 485.326 190.24C485.049 190.552 484.685 190.708 484.234 190.708C483.749 190.708 483.35 190.517 483.038 190.136C482.275 189.235 481.495 188.559 480.698 188.108C479.901 187.623 478.895 187.38 477.682 187.38C476.295 187.38 474.943 187.935 473.626 189.044C472.309 190.153 471.234 191.609 470.402 193.412C469.57 195.18 469.154 197.017 469.154 198.924C469.154 200.657 469.553 202.165 470.35 203.448C471.182 204.696 472.222 205.649 473.47 206.308C474.753 206.967 476.035 207.296 477.318 207.296C480.299 207.296 482.622 206.1 484.286 203.708C484.737 203.084 485.222 202.772 485.742 202.772C486.193 202.772 486.574 202.928 486.886 203.24C487.198 203.552 487.354 203.916 487.354 204.332C487.354 204.679 487.181 205.077 486.834 205.528C485.933 206.845 484.633 207.972 482.934 208.908C481.235 209.844 479.363 210.312 477.318 210.312ZM494.396 210.364C493.945 210.364 493.546 210.208 493.2 209.896C492.888 209.549 492.732 209.168 492.732 208.752V176.252C492.732 175.801 492.888 175.42 493.2 175.108C493.546 174.761 493.945 174.588 494.396 174.588C494.881 174.588 495.262 174.761 495.54 175.108C495.852 175.42 496.008 175.801 496.008 176.252V192.216C497.048 190.067 498.486 188.195 500.324 186.6C502.196 185.005 504.102 184.208 506.044 184.208C508.609 184.208 510.412 185.629 511.452 188.472C512.492 191.315 513.012 195.769 513.012 201.836C513.012 205.268 512.96 207.573 512.856 208.752C512.821 209.203 512.665 209.584 512.388 209.896C512.11 210.173 511.746 210.312 511.296 210.312C510.88 210.312 510.498 210.156 510.152 209.844C509.84 209.532 509.684 209.168 509.684 208.752C509.684 208.232 509.701 207.747 509.736 207.296L509.788 202.2C509.788 196.341 509.406 192.424 508.644 190.448C507.881 188.437 506.928 187.432 505.784 187.432C504.501 187.432 503.236 187.969 501.988 189.044C500.74 190.084 499.648 191.263 498.712 192.58C497.81 193.863 497.169 194.92 496.788 195.752C496.268 196.792 496.008 198.283 496.008 200.224V208.648C496.008 209.168 495.852 209.584 495.54 209.896C495.228 210.208 494.846 210.364 494.396 210.364ZM527.683 210.468C525.741 210.468 524.199 210.035 523.055 209.168C521.945 208.301 521.131 206.828 520.611 204.748C520.091 202.668 519.831 199.773 519.831 196.064C519.831 192.077 520.039 188.801 520.455 186.236C520.559 185.543 520.732 185.057 520.975 184.78C521.252 184.468 521.633 184.312 522.119 184.312C522.535 184.312 522.881 184.451 523.159 184.728C523.471 185.005 523.627 185.387 523.627 185.872C523.627 186.392 523.575 187.068 523.471 187.9C523.159 190.396 523.003 193.533 523.003 197.312C523.003 200.952 523.367 203.569 524.095 205.164C524.823 206.759 526.036 207.556 527.735 207.556C529.295 207.556 530.855 207.157 532.415 206.36C534.009 205.528 535.136 204.731 535.795 203.968C536.211 203.483 536.419 202.703 536.419 201.628L536.627 185.768C536.627 185.352 536.783 185.005 537.095 184.728C537.407 184.451 537.771 184.312 538.187 184.312C538.603 184.312 538.967 184.451 539.279 184.728C539.591 185.005 539.747 185.352 539.747 185.768V208.7C539.747 209.116 539.573 209.497 539.227 209.844C538.88 210.156 538.481 210.312 538.031 210.312C537.476 210.312 537.025 210.139 536.679 209.792C536.367 209.445 536.211 209.012 536.211 208.492V206.516C535.448 207.521 534.269 208.44 532.675 209.272C531.115 210.069 529.451 210.468 527.683 210.468ZM548.833 210.312C548.417 210.312 548.036 210.173 547.689 209.896C547.343 209.584 547.169 209.237 547.169 208.856V176.148C547.169 175.697 547.325 175.333 547.637 175.056C547.949 174.744 548.348 174.588 548.833 174.588C549.249 174.588 549.613 174.744 549.925 175.056C550.272 175.368 550.445 175.732 550.445 176.148V208.856C550.445 209.237 550.272 209.584 549.925 209.896C549.613 210.173 549.249 210.312 548.833 210.312ZM569.828 210.312C567.298 210.312 565.044 209.757 563.068 208.648C561.092 207.504 559.567 205.979 558.492 204.072C557.418 202.165 556.88 200.085 556.88 197.832C556.88 195.475 557.366 193.273 558.336 191.228C559.342 189.148 560.728 187.484 562.496 186.236C564.264 184.988 566.292 184.364 568.58 184.364C570.66 184.364 572.428 184.763 573.884 185.56C575.375 186.357 576.484 187.311 577.212 188.42C577.975 189.529 578.356 190.517 578.356 191.384C578.356 192.008 577.94 192.563 577.108 193.048L560.988 202.252C561.855 203.916 563.034 205.181 564.524 206.048C566.015 206.88 567.766 207.296 569.776 207.296C570.886 207.296 572.047 207.019 573.26 206.464C574.508 205.909 575.496 205.251 576.224 204.488C576.467 204.141 576.814 203.968 577.264 203.968C577.715 203.968 578.079 204.124 578.356 204.436C578.668 204.713 578.824 205.077 578.824 205.528C578.824 205.875 578.686 206.221 578.408 206.568C577.472 207.643 576.19 208.544 574.56 209.272C572.966 209.965 571.388 210.312 569.828 210.312ZM575.132 190.968C574.647 189.789 573.884 188.905 572.844 188.316C571.804 187.727 570.4 187.432 568.632 187.432C566.968 187.432 565.478 187.9 564.16 188.836C562.843 189.737 561.803 190.968 561.04 192.528C560.312 194.088 559.931 195.804 559.896 197.676C559.896 198.369 559.931 198.924 560 199.34L575.132 190.968ZM603.886 210.312C603.436 210.312 603.037 210.156 602.69 209.844C602.378 209.497 602.222 209.099 602.222 208.648V176.512C602.222 176.061 602.378 175.68 602.69 175.368C603.002 175.056 603.401 174.9 603.886 174.9C604.372 174.9 604.77 175.056 605.082 175.368C605.429 175.68 605.602 176.061 605.602 176.512V192.112L627.858 188.992V176.512C627.858 176.061 628.014 175.68 628.326 175.368C628.638 175.056 629.037 174.9 629.522 174.9C629.973 174.9 630.354 175.056 630.666 175.368C631.013 175.68 631.186 176.061 631.186 176.512V208.648C631.186 209.099 631.013 209.497 630.666 209.844C630.354 210.156 629.973 210.312 629.522 210.312C629.072 210.312 628.673 210.156 628.326 209.844C628.014 209.497 627.858 209.099 627.858 208.648V192.372L605.602 195.44V208.648C605.602 209.099 605.429 209.497 605.082 209.844C604.736 210.156 604.337 210.312 603.886 210.312ZM656.648 210.728C656.128 210.728 655.73 210.555 655.452 210.208C655.175 209.896 655.036 209.497 655.036 209.012V207.556C654.1 208.388 652.974 209.064 651.656 209.584C650.339 210.069 649.022 210.312 647.704 210.312C645.832 210.312 644.151 209.844 642.66 208.908C641.17 207.972 639.991 206.655 639.124 204.956C638.292 203.223 637.876 201.264 637.876 199.08C637.876 196.723 638.362 194.417 639.332 192.164C640.338 189.876 641.776 188.004 643.648 186.548C645.555 185.092 647.791 184.364 650.356 184.364C651.951 184.364 653.355 184.572 654.568 184.988C655.782 185.404 657.012 185.907 658.26 186.496V209.012C658.26 209.497 658.104 209.896 657.792 210.208C657.48 210.555 657.099 210.728 656.648 210.728ZM647.704 207.244C649.056 207.244 650.408 206.932 651.76 206.308C653.112 205.649 654.152 204.956 654.88 204.228L655.088 188.472C654.534 188.229 653.806 188.004 652.904 187.796C652.038 187.553 651.223 187.432 650.46 187.432C648.762 187.432 647.202 187.935 645.78 188.94C644.359 189.945 643.232 191.332 642.4 193.1C641.603 194.833 641.204 196.792 641.204 198.976C641.204 201.507 641.811 203.517 643.024 205.008C644.238 206.499 645.798 207.244 647.704 207.244ZM668.017 210.312C667.566 210.312 667.168 210.156 666.821 209.844C666.509 209.532 666.353 209.185 666.353 208.804V185.872C666.353 185.421 666.509 185.057 666.821 184.78C667.168 184.468 667.566 184.312 668.017 184.312C668.468 184.312 668.849 184.468 669.161 184.78C669.473 185.057 669.629 185.421 669.629 185.872V194.088C670.634 190.968 672.021 188.576 673.789 186.912C675.592 185.213 677.62 184.364 679.873 184.364C681.78 184.364 683.288 184.849 684.397 185.82C685.506 186.791 686.304 188.333 686.789 190.448C687.274 192.528 687.517 195.336 687.517 198.872C687.517 202.339 687.5 204.609 687.465 205.684V208.648C687.465 209.099 687.309 209.497 686.997 209.844C686.72 210.156 686.356 210.312 685.905 210.312C685.489 210.312 685.125 210.156 684.813 209.844C684.501 209.497 684.345 209.116 684.345 208.7V205.788C684.31 204.713 684.293 202.477 684.293 199.08C684.293 195.856 684.12 193.412 683.773 191.748C683.461 190.084 682.958 188.957 682.265 188.368C681.606 187.744 680.653 187.432 679.405 187.432C678.226 187.432 677.065 187.865 675.921 188.732C674.777 189.599 673.772 190.829 672.905 192.424C671.761 194.504 670.929 196.463 670.409 198.3C669.924 200.137 669.664 202.027 669.629 203.968L669.577 208.596C669.577 209.081 669.421 209.497 669.109 209.844C668.832 210.156 668.468 210.312 668.017 210.312ZM696.759 210.312C696.308 210.312 695.91 210.156 695.563 209.844C695.251 209.532 695.095 209.185 695.095 208.804V185.872C695.095 185.421 695.251 185.057 695.563 184.78C695.91 184.468 696.308 184.312 696.759 184.312C697.21 184.312 697.591 184.468 697.903 184.78C698.215 185.057 698.371 185.421 698.371 185.872V194.088C699.376 190.968 700.763 188.576 702.531 186.912C704.334 185.213 706.362 184.364 708.615 184.364C710.522 184.364 712.03 184.849 713.139 185.82C714.248 186.791 715.046 188.333 715.531 190.448C716.016 192.528 716.259 195.336 716.259 198.872C716.259 202.339 716.242 204.609 716.207 205.684V208.648C716.207 209.099 716.051 209.497 715.739 209.844C715.462 210.156 715.098 210.312 714.647 210.312C714.231 210.312 713.867 210.156 713.555 209.844C713.243 209.497 713.087 209.116 713.087 208.7V205.788C713.052 204.713 713.035 202.477 713.035 199.08C713.035 195.856 712.862 193.412 712.515 191.748C712.203 190.084 711.7 188.957 711.007 188.368C710.348 187.744 709.395 187.432 708.147 187.432C706.968 187.432 705.807 187.865 704.663 188.732C703.519 189.599 702.514 190.829 701.647 192.424C700.503 194.504 699.671 196.463 699.151 198.3C698.666 200.137 698.406 202.027 698.371 203.968L698.319 208.596C698.319 209.081 698.163 209.497 697.851 209.844C697.574 210.156 697.21 210.312 696.759 210.312ZM732.729 210.312C730.753 210.312 728.951 209.792 727.321 208.752C725.727 207.677 724.461 206.239 723.525 204.436C722.624 202.599 722.173 200.571 722.173 198.352C722.173 195.995 722.693 193.741 723.733 191.592C724.808 189.443 726.281 187.709 728.153 186.392C730.025 185.04 732.088 184.364 734.341 184.364C736.283 184.364 738.051 184.901 739.645 185.976C741.275 187.016 742.54 188.455 743.441 190.292C744.377 192.095 744.845 194.088 744.845 196.272C744.845 198.768 744.291 201.091 743.181 203.24C742.072 205.389 740.581 207.105 738.709 208.388C736.872 209.671 734.879 210.312 732.729 210.312ZM732.937 207.348C734.428 207.348 735.832 206.845 737.149 205.84C738.467 204.835 739.524 203.5 740.321 201.836C741.119 200.172 741.517 198.404 741.517 196.532C741.517 194.903 741.188 193.395 740.529 192.008C739.871 190.587 738.969 189.46 737.825 188.628C736.716 187.761 735.468 187.328 734.081 187.328C732.556 187.328 731.135 187.848 729.817 188.888C728.535 189.893 727.495 191.245 726.697 192.944C725.935 194.608 725.553 196.376 725.553 198.248C725.553 200.051 725.883 201.645 726.541 203.032C727.235 204.384 728.153 205.441 729.297 206.204C730.441 206.967 731.655 207.348 732.937 207.348ZM757.354 210.364C756.661 210.364 756.158 209.983 755.846 209.22L746.59 186.548C746.521 186.271 746.486 186.08 746.486 185.976C746.486 185.525 746.642 185.144 746.954 184.832C747.301 184.52 747.717 184.364 748.202 184.364C748.861 184.364 749.363 184.728 749.71 185.456L757.354 204.748L765.05 185.3C765.189 185.023 765.379 184.797 765.622 184.624C765.899 184.416 766.211 184.312 766.558 184.312C767.009 184.312 767.39 184.485 767.702 184.832C768.049 185.144 768.222 185.508 768.222 185.924C768.222 186.132 768.153 186.375 768.014 186.652L758.862 209.324C758.55 210.017 758.047 210.364 757.354 210.364ZM782.805 210.312C780.274 210.312 778.021 209.757 776.045 208.648C774.069 207.504 772.544 205.979 771.469 204.072C770.394 202.165 769.857 200.085 769.857 197.832C769.857 195.475 770.342 193.273 771.313 191.228C772.318 189.148 773.705 187.484 775.473 186.236C777.241 184.988 779.269 184.364 781.557 184.364C783.637 184.364 785.405 184.763 786.861 185.56C788.352 186.357 789.461 187.311 790.189 188.42C790.952 189.529 791.333 190.517 791.333 191.384C791.333 192.008 790.917 192.563 790.085 193.048L773.965 202.252C774.832 203.916 776.01 205.181 777.501 206.048C778.992 206.88 780.742 207.296 782.753 207.296C783.862 207.296 785.024 207.019 786.237 206.464C787.485 205.909 788.473 205.251 789.201 204.488C789.444 204.141 789.79 203.968 790.241 203.968C790.692 203.968 791.056 204.124 791.333 204.436C791.645 204.713 791.801 205.077 791.801 205.528C791.801 205.875 791.662 206.221 791.385 206.568C790.449 207.643 789.166 208.544 787.537 209.272C785.942 209.965 784.365 210.312 782.805 210.312ZM788.109 190.968C787.624 189.789 786.861 188.905 785.821 188.316C784.781 187.727 783.377 187.432 781.609 187.432C779.945 187.432 778.454 187.9 777.137 188.836C775.82 189.737 774.78 190.968 774.017 192.528C773.289 194.088 772.908 195.804 772.873 197.676C772.873 198.369 772.908 198.924 772.977 199.34L788.109 190.968ZM799.236 210.312C798.82 210.312 798.438 210.156 798.092 209.844C797.745 209.532 797.572 209.185 797.572 208.804V185.924C797.572 185.473 797.728 185.109 798.04 184.832C798.386 184.52 798.785 184.364 799.236 184.364C799.721 184.364 800.12 184.52 800.432 184.832C800.744 185.109 800.9 185.473 800.9 185.924V190.344C801.87 188.645 803.066 187.207 804.488 186.028C805.944 184.815 807.642 184.208 809.584 184.208C811.109 184.208 812.201 184.641 812.86 185.508C813.553 186.34 813.9 187.345 813.9 188.524V190.188C813.9 190.639 813.744 191.02 813.432 191.332C813.12 191.609 812.738 191.748 812.288 191.748C811.768 191.748 811.386 191.592 811.144 191.28C810.901 190.968 810.78 190.587 810.78 190.136V188.94C810.78 187.935 810.19 187.432 809.012 187.432C806.966 187.432 804.852 188.888 802.668 191.8C802.148 192.493 801.714 193.36 801.368 194.4C801.056 195.44 800.9 196.411 800.9 197.312L800.848 208.804C800.848 209.185 800.674 209.532 800.328 209.844C800.016 210.156 799.652 210.312 799.236 210.312Z" fill="white"/>
</svg>
